PathFileType	4	(X/Y/Z)	6_coords_data.trc
DataRate	CameraRate	NumFrames	NumMarkers	Units	OrigDataRate	OrigDataStartFrame	OrigNumFrames
30.0	30.0	8	21	m	30.0	39	77
Frame#	Time	THUMB_TIP	THUMB_IP	THUMB_MCP	THUMB_CMC	INDEX_TIP	INDEX_DIP	INDEX_PIP	INDEX_MCP	MIDDLE_TIP	MIDDLE_DIP	MIDDLE_PIP	MIDDLE_MCP	RING_TIP	RING_DIP	RING_PIP	RING_MCP	PINKY_TIP	PINKY_DIP	PINKY_PIP	PINKY_MCP	WRIST
X1	Y1	Z1	X2	Y2	Z2	X3	Y3	Z3	X4	Y4	Z4	X5	Y5	Z5	X6	Y6	Z6	X7	Y7	Z7	X8	Y8	Z8	X9	Y9	Z9	X10	Y10	Z10	X11	Y11	Z11	X12	Y12	Z12	X13	Y13	Z13	X14	Y14	Z14	X15	Y15	Z15	X16	Y16	Z16	X17	Y17	Z17	X18	Y18	Z18	X19	Y19	Z19	X20	Y20	Z20	X21	Y21	Z21
38	1.2666666666666666	0.013057399749755859	-0.15058200073242187	1.031489990234375	0.017496700286865233	-0.12215299987792969	1.0288499755859375	0.006472449779510498	-0.0921510009765625	1.0383900146484375	-0.001098819971084594	-0.0516083984375	1.0486400146484376	0.002697309970855713	-0.0615343017578125	1.01827001953125	0.01922999954223633	-0.05908029937744141	1.0109600219726562	0.02571980094909668	-0.06065169906616211	0.9868389892578125	-0.015006699562072755	-0.06837460327148437	0.9891610107421875	0.011497900009155274	-0.045816299438476565	1.0223699951171874	0.01843819999694824	-0.04240340042114258	1.015719970703125	0.024237100601196288	-0.03952349853515625	0.9871680297851563	-0.02034040069580078	-0.04422269821166992	0.9830349731445313	0.007190999984741211	-0.029836299896240235	1.02675	0.016080400466918946	-0.025975200653076173	1.0210499877929688	0.02508650016784668	-0.02057509994506836	0.9964869995117187	-0.01687150001525879	-0.019709400177001953	0.9879559936523438	0.003115170001983642	-0.01156029987335205	1.0283499755859375	0.01718819999694824	-0.009917610168457032	1.0213699951171875	0.021930200576782227	-0.003887700080871582	1.0034299926757813	-0.009282010078430176	0.001069239974021911	0.9993140258789063	-0.02136280059814453	-0.02489889907836914	1.06672998046875
39	1.3	0.013119999885559081	-0.1505749969482422	1.0316600341796875	0.017612600326538087	-0.12218199920654296	1.0289300537109376	0.006475689888000488	-0.0921083984375	1.038489990234375	-0.0009516459703445431	-0.05165119934082031	1.0485999755859374	0.0025173299312591553	-0.06173590087890625	1.0181900024414063	0.019393199920654296	-0.05906129837036133	1.0107999877929688	0.025851999282836914	-0.06068090057373047	0.9868200073242187	-0.014843700408935546	-0.06829239654541015	0.98914501953125	0.011729599952697754	-0.04577560043334961	1.0221699829101563	0.018605199813842774	-0.04238219833374023	1.01577001953125	0.024376300811767577	-0.039484901428222655	0.9873619995117188	-0.020152700424194335	-0.044089500427246096	0.9830180053710937	0.00744398021697998	-0.02977359962463379	1.02668994140625	0.016276599884033204	-0.02597130012512207	1.0211199951171874	0.025262100219726562	-0.02055430030822754	0.996573974609375	-0.016655399322509767	-0.0196023006439209	0.9879959716796874	0.003272759914398193	-0.011630200386047363	1.0284200439453124	0.01736210060119629	-0.009881030082702637	1.0213699951171875	0.02214850044250488	-0.003814150094985962	1.0038099975585937	-0.009147859573364258	0.001161509990692138	0.9993889770507812	-0.021167999267578126	-0.024828500747680664	1.06702001953125
40	1.3333333333333333	0.013681500434875489	-0.15063900756835938	1.03197998046875	0.018128299713134767	-0.12231600189208984	1.029219970703125	0.006841060161590576	-0.09212210083007813	1.03877001953125	-0.000678310990333557	-0.051611698150634766	1.04872998046875	0.002794899940490722	-0.061754199981689455	1.0179500122070313	0.019658899307250975	-0.0590531005859375	1.010989990234375	0.02613689994812012	-0.0606619987487793	0.9868510131835937	-0.014536199569702148	-0.06837319946289062	0.9892379760742187	0.011984800338745117	-0.04575910186767578	1.0224500122070312	0.018813199996948242	-0.042345699310302735	1.0155700073242186	0.024757499694824218	-0.039465198516845705	0.9872509765625	-0.019854400634765627	-0.044162399291992185	0.98306201171875	0.007770410060882568	-0.029857999801635744	1.0265400390625	0.01652630043029785	-0.025938100814819336	1.0211699829101561	0.02556949996948242	-0.020541900634765624	0.9966229858398438	-0.016422199249267577	-0.019651300430297853	0.988052978515625	0.003518100023269653	-0.011637499809265137	1.02852001953125	0.017629499435424804	-0.009885180473327636	1.0215	0.022363399505615233	-0.003838419914245605	1.0035399780273437	-0.00884434986114502	0.00112214994430542	0.9994409790039063	-0.021083599090576173	-0.02485610008239746	1.066949951171875
41	1.3666666666666667	0.013923800468444825	-0.15084500122070313	1.0321300048828126	0.018372499465942382	-0.12250499725341797	1.0293699951171875	0.0070390400886535635	-0.09245980072021484	1.038780029296875	-0.0005677220225334161	-0.051934700012207034	1.04875	0.00292628002166748	-0.061922199249267576	1.0179099731445314	0.019933799743652343	-0.05922529983520508	1.0110499877929688	0.02647100067138672	-0.060813899993896484	0.9870850219726562	-0.014165599822998047	-0.06858740234375	0.9891890258789062	0.012100799560546875	-0.04593539810180664	1.0226799926757812	0.018986400604248048	-0.042490798950195315	1.0155800170898437	0.02492020034790039	-0.03969540023803711	0.9872119750976562	-0.019568099975585937	-0.04437179946899414	0.98302099609375	0.007670549869537353	-0.029942100524902343	1.026989990234375	0.016703100204467775	-0.026107099533081053	1.0211300048828125	0.025809600830078126	-0.02075950050354004	0.996625	-0.016154699325561524	-0.019863399505615234	0.9879940185546875	0.0036322801113128664	-0.0119375	1.028510009765625	0.017534000396728516	-0.010056500434875488	1.0212000122070313	0.022552099227905274	-0.004045760154724121	1.0036400146484374	-0.008835109710693359	0.0009246360063552851	0.9994650268554688	-0.020882200241088868	-0.02511210060119629	1.066949951171875
42	1.4	0.01358530044555664	-0.1511510009765625	1.0318900146484375	0.018073999404907226	-0.12282599639892579	1.0291500244140626	0.006828559875488281	-0.09268099975585938	1.0386199951171875	-0.000647906005382537	-0.05213059997558594	1.0485699462890625	0.002785579919815063	-0.062215198516845704	1.0178800048828125	0.019712900161743162	-0.05961859893798828	1.010760009765625	0.02617099952697754	-0.06127270126342774	0.9866110229492188	-0.014388400077819824	-0.06875969696044922	0.9890900268554688	0.011959099769592285	-0.04627339935302734	1.022469970703125	0.018877099990844727	-0.0428828010559082	1.0153900146484376	0.024857900619506837	-0.040021900177001954	0.9872239990234375	-0.019701999664306642	-0.04460639953613281	0.9829429931640625	0.007438499927520752	-0.03019659996032715	1.02697998046875	0.016665500640869142	-0.026470300674438476	1.020969970703125	0.025763900756835937	-0.021113500595092774	0.9964749755859375	-0.016150699615478516	-0.02011090087890625	0.9878610229492187	0.003686980009078979	-0.01221619987487793	1.028239990234375	0.017720500946044923	-0.010439900398254395	1.0210599975585937	0.022574399948120116	-0.004379720211029053	1.0035900268554687	-0.008666839599609375	0.0006576960086822511	0.9993179931640624	-0.020871299743652344	-0.025331899642944335	1.0669100341796875
43	1.4333333333333333	0.013936599731445313	-0.1513209991455078	1.031699951171875	0.018263999938964843	-0.12297000122070313	1.029010009765625	0.00698675012588501	-0.09288569641113281	1.03852001953125	-0.0006641629934310911	-0.05226630020141602	1.0486400146484376	0.002896430015563965	-0.06270999908447265	1.01727001953125	0.019798900604248045	-0.05978179931640625	1.0107899780273437	0.026143999099731446	-0.06145349884033203	0.9864959716796875	-0.014339099884033204	-0.0690208969116211	0.9889199829101563	0.0119552001953125	-0.04650090026855469	1.0224400024414062	0.018969800949096678	-0.04310369873046875	1.0155599975585938	0.02483139991760254	-0.04018529891967773	0.9869140014648438	-0.019753299713134765	-0.0448672981262207	0.9829080200195313	0.007772510051727295	-0.030627099990844727	1.0261199951171875	0.0166648006439209	-0.026701099395751954	1.0208499755859375	0.025703699111938476	-0.021314199447631837	0.9963389892578125	-0.016237600326538086	-0.02040049934387207	0.98781298828125	0.0036584300994873037	-0.01242169952392578	1.0281300048828126	0.017851699829101564	-0.010647600173950195	1.0211300048828125	0.02256480026245117	-0.004548309803009033	1.0035399780273437	-0.008807740211486816	0.00040938299894332803	0.9992239990234375	-0.020942899703979494	-0.025489500045776367	1.0666700439453125
44	1.4666666666666666	0.014228300094604492	-0.15143899536132813	1.0317099609375	0.018580400466918945	-0.1231230010986328	1.0289599609375	0.007152450084686279	-0.09300900268554688	1.038489990234375	-0.00047483301162719706	-0.05250320053100586	1.048530029296875	0.0030139000415802	-0.06252790069580078	1.01827001953125	0.01995599937438965	-0.06001169967651367	1.01075	0.026176599502563475	-0.06168119812011719	0.9864190063476562	-0.014271200180053711	-0.06921929931640625	0.98897900390625	0.012031399726867675	-0.04664939880371094	1.0224500122070312	0.01893280029296875	-0.04325630187988281	1.0152899780273437	0.024949199676513673	-0.040403499603271484	0.9869249877929688	-0.019651199340820314	-0.04511109924316406	0.9828040161132813	0.007595739841461182	-0.030612800598144533	1.026699951171875	0.016695199966430666	-0.026858600616455078	1.020780029296875	0.025729400634765625	-0.021479900360107423	0.9962470092773438	-0.016247499465942384	-0.020650999069213867	0.9877509765625	0.0036892199516296376	-0.012590800285339356	1.0278399658203126	0.017876300811767578	-0.010819000244140625	1.0210700073242187	0.02247520065307617	-0.004778969764709473	1.0032899780273437	-0.008783840179443359	0.00011316200345754602	0.9989719848632812	-0.020896099090576173	-0.025695600509643556	1.066739990234375
45	1.5	0.014010299682617187	-0.15154600524902342	1.031489990234375	0.018360700607299805	-0.1231520004272461	1.0288299560546874	0.00704394006729126	-0.09304190063476563	1.038469970703125	-0.000529344022274017	-0.05257609939575195	1.04843994140625	0.0029154999256134034	-0.06266389846801758	1.0179400024414063	0.01994879913330078	-0.06007889938354492	1.010719970703125	0.026289600372314453	-0.06177059936523437	0.98652099609375	-0.014441100120544434	-0.06934339904785156	0.9889030151367187	0.012108699798583984	-0.046750999450683596	1.022260009765625	0.018915399551391602	-0.04335499954223633	1.01522998046875	0.024888900756835936	-0.04057730102539062	0.987041015625	-0.019717599868774412	-0.04519089889526367	0.982718017578125	0.007624499797821045	-0.030558599472045898	1.0268499755859375	0.01669580078125	-0.026953699111938477	1.0206900024414063	0.025704999923706055	-0.021627700805664063	0.9961329956054688	-0.016285800933837892	-0.02075480079650879	0.9877080078125	0.003612750053405761	-0.012644100189208984	1.0276099853515626	0.017771699905395507	-0.0109197998046875	1.0208499755859375	0.02246299934387207	-0.004909649848937988	1.003	-0.008899069786071778	-2.553599886596e-06	0.9989229736328125	-0.020902200698852538	-0.025782400131225586	1.0666199951171875
